<?xml version="1.0" standalone="no"?>
<!DOCTYPE svg PUBLIC "-//W3C//DTD SVG 20010904//EN"
 "http://www.w3.org/TR/2001/REC-SVG-20010904/DTD/svg10.dtd">
<svg version="1.0" xmlns="http://www.w3.org/2000/svg"
 width="153.000000pt" height="157.000000pt" viewBox="0 0 153.000000 157.000000"
 preserveAspectRatio="xMidYMid meet">
<metadata>
Created by potrace 1.10, written by Peter Selinger 2001-2011
</metadata>
<g transform="translate(0.000000,157.000000) scale(0.100000,-0.100000)"
fill="#000000" stroke="none">
<path d="M565 1492 c-172 -13 -361 -142 -443 -303 -56 -111 -62 -148 -62 -418
0 -218 2 -251 21 -313 45 -154 143 -273 284 -345 101 -53 167 -62 425 -62 239
0 290 8 400 62 91 44 206 160 249 250 55 116 61 154 61 414 0 270 -1 276 -78
443 -9 19 -48 67 -87 105 -76 75 -174 132 -270 155 -46 11 -401 20 -500 12z
m488 -37 c185 -38 343 -184 402 -375 24 -76 31 -472 10 -572 -51 -246 -266
-424 -520 -430 -243 -5 -391 -1 -450 13 -134 31 -274 135 -340 254 -60 107
-73 180 -73 420 -1 237 6 291 53 390 45 96 85 147 158 202 128 95 195 110 482
111 140 0 233 -4 278 -13z"/>
<path d="M565 1419 c-155 -23 -284 -104 -357 -224 -37 -60 -66 -142 -78 -215
-15 -97 -11 -111 12 -50 79 206 285 407 498 486 29 11 31 13 10 12 -14 0 -52
-4 -85 -9z m-118 -72 c-67 -53 -181 -165 -214 -209 -19 -27 -37 -47 -40 -44
-2 2 8 30 24 62 35 73 101 140 178 181 69 38 92 42 52 10z"/>
<path d="M960 1397 c41 -18 103 -51 136 -74 124 -85 258 -244 309 -368 24 -59
25 -60 25 -23 0 97 -57 249 -124 324 -77 90 -214 154 -356 168 l-65 7 75 -34z
m232 -79 c25 -16 65 -49 87 -73 39 -42 97 -142 88 -151 -3 -3 -21 17 -40 43
-33 44 -154 164 -209 206 l-23 18 25 -7 c14 -3 46 -19 72 -36z"/>
<path d="M708 1390 c-72 -22 -197 -90 -265 -142 -130 -99 -241 -263 -287 -422
-16 -55 -16 -57 9 -133 87 -259 295 -461 558 -543 58 -18 59 -18 125 5 94 32
137 53 217 106 159 106 283 275 335 455 l18 60 -27 80 c-15 43 -35 94 -45 113
-107 202 -300 365 -508 425 -66 19 -58 19 -130 -4z m191 -46 c64 -26 134 -64
139 -76 2 -4 9 -8 15 -8 20 -1 113 -82 162 -142 62 -76 131 -199 156 -278 l20
-64 -22 -70 c-62 -207 -228 -397 -424 -486 -128 -58 -172 -62 -270 -25 -184
69 -351 218 -438 391 -33 66 -67 162 -67 191 0 38 63 183 112 258 82 126 203
230 343 295 117 54 170 57 274 14z"/>
<path d="M684 1089 c-3 -6 109 -16 216 -19 58 -1 127 -33 162 -73 27 -31 28
-31 19 -5 -8 20 -6 28 5 32 43 16 96 0 114 -34 15 -28 4 -43 -23 -29 -21 9
-21 9 -4 -5 28 -22 5 -60 -30 -53 -21 4 -37 -6 -87 -55 l-61 -60 58 7 c31 4
57 3 57 -1 0 -13 -39 -76 -64 -102 -11 -13 -56 -42 -99 -64 -69 -36 -119 -80
-105 -93 2 -3 28 13 57 35 29 22 59 40 66 40 21 0 94 59 125 102 35 48 38 74
10 103 -20 21 -20 22 -2 39 11 9 29 18 40 21 39 7 58 24 77 65 18 40 18 41 -2
68 -31 43 -69 57 -118 44 -35 -9 -44 -8 -75 11 -31 19 -54 23 -183 27 -82 3
-151 2 -153 -1z"/>
<path d="M443 1056 c0 -7 29 -20 64 -31 58 -16 75 -17 163 -6 108 13 216 16
276 7 36 -6 37 -5 14 6 -30 14 -302 27 -312 14 -8 -12 -159 -1 -185 12 -15 8
-20 8 -20 -2z"/>
<path d="M425 1015 c56 -47 97 -58 199 -58 l99 1 -25 -22 c-37 -31 -42 -58
-15 -75 20 -13 21 -13 8 2 -22 28 -5 46 76 84 68 32 88 37 155 37 51 1 71 4
60 10 -22 13 -206 10 -262 -3 -25 -6 -84 -11 -132 -11 -73 0 -90 3 -105 19
-10 11 -31 22 -48 26 -29 6 -29 6 -10 -10z"/>
<path d="M809 930 c-13 -3 -30 -18 -37 -33 -7 -15 -18 -27 -23 -27 -6 0 -7 -4
-4 -10 3 -5 11 -10 16 -10 6 0 7 5 4 10 -4 6 20 10 66 10 65 0 74 3 106 30 18
17 30 31 26 32 -18 4 -132 3 -154 -2z"/>
<path d="M790 845 c0 -16 82 -26 92 -11 9 13 11 12 -44 18 -35 4 -48 2 -48 -7z"/>
<path d="M776 798 c-14 -16 -33 -18 -143 -19 -218 -1 -243 -15 -35 -20 125 -3
187 -1 193 7 5 6 6 14 2 17 -3 4 2 7 13 7 10 0 25 4 33 9 9 6 4 10 -17 13 -21
3 -35 -1 -46 -14z"/>
<path d="M420 731 c0 -22 34 -29 155 -31 149 -3 161 -2 152 6 -5 6 -241 33
-289 34 -10 0 -18 -4 -18 -9z"/>
<path d="M847 655 c-29 -21 -66 -37 -95 -41 -26 -4 -57 -13 -68 -21 -26 -16
-66 -76 -88 -127 -14 -34 -14 -35 5 -23 10 6 22 21 25 32 10 32 53 84 82 99
15 7 44 16 65 19 l38 6 -6 -32 -6 -32 20 25 c11 14 23 33 27 43 3 9 11 17 18
17 15 0 40 27 49 53 9 25 -11 20 -66 -18z"/>
<path d="M455 671 c-3 -6 1 -11 10 -11 9 0 13 -4 10 -10 -4 -6 32 -10 99 -10
61 0 106 4 106 10 0 18 -214 38 -225 21z"/>
<path d="M480 617 c9 -9 43 -17 86 -21 59 -5 73 -3 78 9 4 12 -5 15 -47 15
-29 0 -70 3 -92 6 -36 6 -38 5 -25 -9z"/>
<path d="M490 571 c0 -13 105 -25 122 -15 9 6 4 10 -17 15 -47 10 -105 10
-105 0z"/>
<path d="M500 530 c0 -5 21 -10 48 -9 35 0 42 3 27 9 -28 12 -75 12 -75 0z"/>
<path d="M543 483 c0 -10 6 -23 13 -30 9 -10 13 -6 16 17 4 23 1 30 -12 30 -9
0 -17 -8 -17 -17z"/>
<path d="M120 645 c1 -11 7 -55 15 -98 42 -239 215 -398 457 -422 l63 -6 -82
40 c-184 88 -341 250 -420 431 -18 41 -33 66 -33 55z m195 -329 c39 -39 87
-82 108 -96 20 -14 37 -28 37 -32 0 -12 -42 7 -103 46 -65 42 -115 100 -151
176 l-25 55 32 -39 c18 -22 64 -71 102 -110z"/>
<path d="M1408 598 c-24 -68 -100 -182 -171 -256 -79 -82 -171 -147 -266 -189
-69 -30 -73 -33 -41 -33 57 0 164 27 227 56 75 35 179 139 216 216 35 73 59
168 55 216 l-3 37 -17 -47z m-73 -218 c-35 -69 -106 -138 -178 -173 -66 -32
-86 -31 -34 2 34 21 168 152 208 204 32 42 34 26 4 -33z"/>
</g>
</svg>
